<svg width="13" height="14" viewBox="0 0 13 14" fill="none" xmlns="http://www.w3.org/2000/svg">
<path fill-rule="evenodd" clip-rule="evenodd" d="M6.128 0.349002C6.2413 0.284284 6.36952 0.250244 6.5 0.250244C6.63048 0.250244 6.75871 0.284284 6.872 0.349002L8.1845 1.099C8.27246 1.14654 8.35003 1.21119 8.41265 1.28914C8.47526 1.36709 8.52165 1.45678 8.5491 1.55292C8.57655 1.64907 8.58449 1.74973 8.57247 1.84899C8.56045 1.94825 8.5287 2.0441 8.4791 2.13091C8.42949 2.21772 8.36303 2.29374 8.28361 2.35449C8.2042 2.41524 8.11344 2.4595 8.01668 2.48467C7.91991 2.50983 7.81909 2.51539 7.72014 2.50102C7.62119 2.48666 7.52612 2.45265 7.4405 2.401L6.5 1.864L5.5595 2.401C5.47389 2.45265 5.37881 2.48666 5.27987 2.50102C5.18092 2.51539 5.0801 2.50983 4.98333 2.48467C4.88657 2.4595 4.79581 2.41524 4.71639 2.35449C4.63698 2.29374 4.57052 2.21772 4.52091 2.13091C4.4713 2.0441 4.43956 1.94825 4.42754 1.84899C4.41551 1.74973 4.42346 1.64907 4.45091 1.55292C4.47835 1.45678 4.52475 1.36709 4.58736 1.28914C4.64997 1.21119 4.72754 1.14654 4.8155 1.099L6.128 0.349002ZM3.2135 2.878C3.31211 3.05067 3.33811 3.25543 3.28579 3.44726C3.23347 3.6391 3.10712 3.8023 2.9345 3.901L2.762 4L2.9345 4.099C3.02246 4.14654 3.10003 4.21119 3.16265 4.28914C3.22526 4.36709 3.27165 4.45678 3.2991 4.55292C3.32655 4.64907 3.33449 4.74973 3.32247 4.84899C3.31045 4.94825 3.2787 5.0441 3.2291 5.13091C3.17949 5.21772 3.11303 5.29374 3.03361 5.35449C2.9542 5.41524 2.86344 5.4595 2.76668 5.48466C2.66991 5.50983 2.56909 5.51539 2.47014 5.50102C2.37119 5.48666 2.27612 5.45265 2.1905 5.401L2 5.29225V5.5C2 5.69891 1.92099 5.88968 1.78033 6.03033C1.63968 6.17098 1.44892 6.25 1.25 6.25C1.05109 6.25 0.860326 6.17098 0.719673 6.03033C0.579021 5.88968 0.500004 5.69891 0.500004 5.5V4C0.499584 3.86527 0.53561 3.73294 0.604267 3.61701C0.672924 3.50109 0.771655 3.40589 0.890004 3.3415L2.1905 2.599C2.36317 2.5004 2.56793 2.4744 2.75976 2.52672C2.9516 2.57903 3.1148 2.70539 3.2135 2.878ZM9.7865 2.878C9.8852 2.70539 10.0484 2.57903 10.2402 2.52672C10.4321 2.4744 10.6368 2.5004 10.8095 2.599L12.1093 3.3415C12.2274 3.40617 12.326 3.50141 12.3948 3.61725C12.4635 3.7331 12.4999 3.8653 12.5 4V5.5C12.5 5.69891 12.421 5.88968 12.2803 6.03033C12.1397 6.17098 11.9489 6.25 11.75 6.25C11.5511 6.25 11.3603 6.17098 11.2197 6.03033C11.079 5.88968 11 5.69891 11 5.5V5.29225L10.8095 5.401C10.7239 5.45265 10.6288 5.48666 10.5299 5.50102C10.4309 5.51539 10.3301 5.50983 10.2333 5.48466C10.1366 5.4595 10.0458 5.41524 9.96639 5.35449C9.88698 5.29374 9.82052 5.21772 9.77091 5.13091C9.7213 5.0441 9.68956 4.94825 9.67754 4.84899C9.66551 4.74973 9.67346 4.64907 9.70091 4.55292C9.72835 4.45678 9.77475 4.36709 9.83736 4.28914C9.89997 4.21119 9.97754 4.14654 10.0655 4.099L10.238 4L10.0655 3.901C9.89289 3.8023 9.76653 3.6391 9.71422 3.44726C9.6619 3.25543 9.6879 3.05067 9.7865 2.878ZM4.5365 5.878C4.6352 5.70539 4.79841 5.57903 4.99024 5.52672C5.18208 5.4744 5.38684 5.5004 5.5595 5.599L6.5 6.136L7.4405 5.599C7.52612 5.54736 7.62119 5.51335 7.72014 5.49898C7.81909 5.48461 7.91991 5.49018 8.01668 5.51534C8.11344 5.5405 8.2042 5.58476 8.28361 5.64551C8.36303 5.70626 8.42949 5.78228 8.4791 5.86909C8.5287 5.9559 8.56045 6.05176 8.57247 6.15102C8.58449 6.25028 8.57655 6.35094 8.5491 6.44708C8.52165 6.54323 8.47526 6.63291 8.41265 6.71087C8.35003 6.78882 8.27246 6.85346 8.1845 6.901L7.25 7.435V8.5C7.25 8.69891 7.17099 8.88968 7.03033 9.03033C6.88968 9.17098 6.69892 9.25 6.5 9.25C6.30109 9.25 6.11033 9.17098 5.96967 9.03033C5.82902 8.88968 5.75 8.69891 5.75 8.5V7.435L4.8155 6.901C4.64289 6.8023 4.51654 6.6391 4.46422 6.44726C4.4119 6.25543 4.4379 6.05067 4.5365 5.878ZM1.25 7.75C1.44892 7.75 1.63968 7.82902 1.78033 7.96967C1.92099 8.11032 2 8.30109 2 8.5V9.565L2.9345 10.099C3.02246 10.1465 3.10003 10.2112 3.16265 10.2891C3.22526 10.3671 3.27165 10.4568 3.2991 10.5529C3.32655 10.6491 3.33449 10.7497 3.32247 10.849C3.31045 10.9482 3.2787 11.0441 3.2291 11.1309C3.17949 11.2177 3.11303 11.2937 3.03361 11.3545C2.9542 11.4152 2.86344 11.4595 2.76668 11.4847C2.66991 11.5098 2.56909 11.5154 2.47014 11.501C2.37119 11.4867 2.27612 11.4526 2.1905 11.401L0.878004 10.651C0.763213 10.5854 0.667793 10.4907 0.601412 10.3764C0.535031 10.262 0.500046 10.1322 0.500004 10V8.5C0.500004 8.30109 0.579021 8.11032 0.719673 7.96967C0.860326 7.82902 1.05109 7.75 1.25 7.75ZM11.75 7.75C11.9489 7.75 12.1397 7.82902 12.2803 7.96967C12.421 8.11032 12.5 8.30109 12.5 8.5V10C12.5 10.1322 12.465 10.262 12.3986 10.3764C12.3322 10.4907 12.2368 10.5854 12.122 10.651L10.8095 11.401C10.7239 11.4526 10.6288 11.4867 10.5299 11.501C10.4309 11.5154 10.3301 11.5098 10.2333 11.4847C10.1366 11.4595 10.0458 11.4152 9.96639 11.3545C9.88698 11.2937 9.82052 11.2177 9.77091 11.1309C9.7213 11.0441 9.68956 10.9482 9.67754 10.849C9.66551 10.7497 9.67346 10.6491 9.70091 10.5529C9.72835 10.4568 9.77475 10.3671 9.83736 10.2891C9.89997 10.2112 9.97754 10.1465 10.0655 10.099L11 9.565V8.5C11 8.30109 11.079 8.11032 11.2197 7.96967C11.3603 7.82902 11.5511 7.75 11.75 7.75ZM4.5365 11.878C4.6352 11.7054 4.79841 11.579 4.99024 11.5267C5.18208 11.4744 5.38684 11.5004 5.5595 11.599L5.75 11.7078V11.5C5.75 11.3011 5.82902 11.1103 5.96967 10.9697C6.11033 10.829 6.30109 10.75 6.5 10.75C6.69892 10.75 6.88968 10.829 7.03033 10.9697C7.17099 11.1103 7.25 11.3011 7.25 11.5V11.7078L7.4405 11.599C7.52612 11.5474 7.62119 11.5133 7.72014 11.499C7.81909 11.4846 7.91991 11.4902 8.01668 11.5153C8.11344 11.5405 8.2042 11.5848 8.28361 11.6455C8.36303 11.7063 8.42949 11.7823 8.4791 11.8691C8.5287 11.9559 8.56045 12.0518 8.57247 12.151C8.58449 12.2503 8.57655 12.3509 8.5491 12.4471C8.52165 12.5432 8.47526 12.6329 8.41265 12.7109C8.35003 12.7888 8.27246 12.8535 8.1845 12.901L6.88325 13.645C6.76743 13.7143 6.63498 13.7509 6.5 13.7509C6.36502 13.7509 6.23257 13.7143 6.11675 13.645L4.8155 12.901C4.64289 12.8023 4.51654 12.6391 4.46422 12.4473C4.4119 12.2554 4.4379 12.0507 4.5365 11.878Z" fill="url(#paint0_linear_2267_136)"/>
<defs>
<linearGradient id="paint0_linear_2267_136" x1="6.5" y1="0.250244" x2="6.5" y2="13.7509" gradientUnits="userSpaceOnUse">
<stop stop-color="#C12222"/>
<stop offset="0.927083" stop-color="#EEBB19"/>
<stop offset="1" stop-color="#3F3F46" stop-opacity="0"/>
</linearGradient>
</defs>
</svg>
