<svg width="10" height="10" viewBox="0 0 10 10" fill="none" xmlns="http://www.w3.org/2000/svg">
<path fill-rule="evenodd" clip-rule="evenodd" d="M4.752 0.566007C4.82753 0.522861 4.91302 0.500168 5 0.500168C5.08699 0.500168 5.17247 0.522861 5.248 0.566007L6.123 1.06601C6.18164 1.0977 6.23335 1.1408 6.2751 1.19276C6.31684 1.24473 6.34777 1.30452 6.36607 1.36862C6.38437 1.43272 6.38966 1.49982 6.38165 1.566C6.37363 1.63217 6.35247 1.69607 6.3194 1.75395C6.28633 1.81182 6.24202 1.8625 6.18908 1.903C6.13613 1.9435 6.07563 1.97301 6.01112 1.98978C5.94661 2.00656 5.87939 2.01027 5.81343 2.00069C5.74746 1.99111 5.68408 1.96844 5.627 1.93401L5 1.57601L4.373 1.93401C4.31593 1.96844 4.25254 1.99111 4.18658 2.00069C4.12061 2.01027 4.0534 2.00656 3.98889 1.98978C3.92438 1.97301 3.86387 1.9435 3.81093 1.903C3.75799 1.8625 3.71368 1.81182 3.68061 1.75395C3.64754 1.69607 3.62637 1.63217 3.61836 1.566C3.61034 1.49982 3.61564 1.43272 3.63394 1.36862C3.65224 1.30452 3.68317 1.24473 3.72491 1.19276C3.76665 1.1408 3.81836 1.0977 3.877 1.06601L4.752 0.566007ZM2.809 2.25201C2.87474 2.36712 2.89207 2.50362 2.85719 2.63151C2.82231 2.7594 2.73808 2.86821 2.623 2.93401L2.508 3.00001L2.623 3.06601C2.68164 3.0977 2.73335 3.1408 2.7751 3.19276C2.81684 3.24473 2.84777 3.30452 2.86607 3.36862C2.88437 3.43272 2.88966 3.49982 2.88165 3.566C2.87363 3.63217 2.85247 3.69607 2.8194 3.75395C2.78633 3.81182 2.74202 3.8625 2.68908 3.903C2.63613 3.9435 2.57563 3.97301 2.51112 3.98978C2.44661 4.00656 2.37939 4.01027 2.31343 4.00069C2.24746 3.99111 2.18408 3.96844 2.127 3.93401L2 3.86151V4.00001C2 4.13261 1.94732 4.25979 1.85356 4.35356C1.75979 4.44733 1.63261 4.50001 1.5 4.50001C1.36739 4.50001 1.24022 4.44733 1.14645 4.35356C1.05268 4.25979 1 4.13261 1 4.00001V3.00001C0.999723 2.91019 1.02374 2.82196 1.06951 2.74468C1.11528 2.6674 1.1811 2.60393 1.26 2.56101L2.127 2.06601C2.24212 2.00027 2.37862 1.98294 2.50651 2.01782C2.6344 2.05269 2.7432 2.13693 2.809 2.25201ZM7.191 2.25201C7.2568 2.13693 7.36561 2.05269 7.4935 2.01782C7.62138 1.98294 7.75789 2.00027 7.873 2.06601L8.7395 2.56101C8.81828 2.60412 8.88403 2.66761 8.92986 2.74484C8.97569 2.82207 8.99991 2.9102 9 3.00001V4.00001C9 4.13261 8.94732 4.25979 8.85356 4.35356C8.75979 4.44733 8.63261 4.50001 8.5 4.50001C8.36739 4.50001 8.24022 4.44733 8.14645 4.35356C8.05268 4.25979 8 4.13261 8 4.00001V3.86151L7.873 3.93401C7.81593 3.96844 7.75254 3.99111 7.68658 4.00069C7.62061 4.01027 7.5534 4.00656 7.48889 3.98978C7.42438 3.97301 7.36387 3.9435 7.31093 3.903C7.25799 3.8625 7.21368 3.81182 7.18061 3.75395C7.14754 3.69607 7.12637 3.63217 7.11836 3.566C7.11034 3.49982 7.11564 3.43272 7.13394 3.36862C7.15224 3.30452 7.18317 3.24473 7.22491 3.19276C7.26665 3.1408 7.31836 3.0977 7.377 3.06601L7.492 3.00001L7.377 2.93401C7.26193 2.86821 7.17769 2.7594 7.14281 2.63151C7.10793 2.50362 7.12527 2.36712 7.191 2.25201ZM3.691 4.25201C3.7568 4.13693 3.86561 4.05269 3.9935 4.01782C4.12138 3.98294 4.25789 4.00027 4.373 4.06601L5 4.42401L5.627 4.06601C5.68408 4.03158 5.74746 4.0089 5.81343 3.99933C5.87939 3.98975 5.94661 3.99346 6.01112 4.01023C6.07563 4.02701 6.13613 4.05651 6.18908 4.09701C6.24202 4.13752 6.28633 4.18819 6.3194 4.24607C6.35247 4.30394 6.37363 4.36784 6.38165 4.43402C6.38966 4.50019 6.38437 4.5673 6.36607 4.63139C6.34777 4.69549 6.31684 4.75528 6.2751 4.80725C6.23335 4.85922 6.18164 4.90231 6.123 4.93401L5.5 5.29001V6.00001C5.5 6.13262 5.44732 6.25979 5.35356 6.35356C5.25979 6.44733 5.13261 6.50001 5 6.50001C4.86739 6.50001 4.74022 6.44733 4.64645 6.35356C4.55268 6.25979 4.5 6.13262 4.5 6.00001V5.29001L3.877 4.93401C3.76193 4.86821 3.67769 4.7594 3.64281 4.63151C3.60793 4.50362 3.62527 4.36712 3.691 4.25201ZM1.5 5.50001C1.63261 5.50001 1.75979 5.55269 1.85356 5.64645C1.94732 5.74022 2 5.8674 2 6.00001V6.71001L2.623 7.06601C2.68164 7.0977 2.73335 7.1408 2.7751 7.19276C2.81684 7.24473 2.84777 7.30452 2.86607 7.36862C2.88437 7.43272 2.88966 7.49982 2.88165 7.566C2.87363 7.63217 2.85247 7.69607 2.8194 7.75395C2.78633 7.81182 2.74202 7.8625 2.68908 7.903C2.63613 7.9435 2.57563 7.97301 2.51112 7.98978C2.44661 8.00656 2.37939 8.01027 2.31343 8.00069C2.24746 7.99111 2.18408 7.96844 2.127 7.93401L1.252 7.43401C1.17548 7.39029 1.11186 7.32713 1.06761 7.25091C1.02335 7.1747 1.00003 7.08814 1 7.00001V6.00001C1 5.8674 1.05268 5.74022 1.14645 5.64645C1.24022 5.55269 1.36739 5.50001 1.5 5.50001ZM8.5 5.50001C8.63261 5.50001 8.75979 5.55269 8.85356 5.64645C8.94732 5.74022 9 5.8674 9 6.00001V7.00001C8.99997 7.08814 8.97665 7.1747 8.9324 7.25091C8.88814 7.32713 8.82453 7.39029 8.748 7.43401L7.873 7.93401C7.81593 7.96844 7.75254 7.99111 7.68658 8.00069C7.62061 8.01027 7.5534 8.00656 7.48889 7.98978C7.42438 7.97301 7.36387 7.9435 7.31093 7.903C7.25799 7.8625 7.21368 7.81182 7.18061 7.75395C7.14754 7.69607 7.12637 7.63217 7.11836 7.566C7.11034 7.49982 7.11564 7.43272 7.13394 7.36862C7.15224 7.30452 7.18317 7.24473 7.22491 7.19276C7.26665 7.1408 7.31836 7.0977 7.377 7.06601L8 6.71001V6.00001C8 5.8674 8.05268 5.74022 8.14645 5.64645C8.24022 5.55269 8.36739 5.50001 8.5 5.50001ZM3.691 8.25201C3.7568 8.13693 3.86561 8.05269 3.9935 8.01782C4.12138 7.98294 4.25789 8.00027 4.373 8.06601L4.5 8.13851V8.00001C4.5 7.8674 4.55268 7.74022 4.64645 7.64645C4.74022 7.55269 4.86739 7.50001 5 7.50001C5.13261 7.50001 5.25979 7.55269 5.35356 7.64645C5.44732 7.74022 5.5 7.8674 5.5 8.00001V8.13851L5.627 8.06601C5.68408 8.03158 5.74746 8.0089 5.81343 7.99933C5.87939 7.98975 5.94661 7.99345 6.01112 8.01023C6.07563 8.02701 6.13613 8.05651 6.18908 8.09701C6.24202 8.13752 6.28633 8.18819 6.3194 8.24607C6.35247 8.30394 6.37363 8.36784 6.38165 8.43402C6.38966 8.50019 6.38437 8.5673 6.36607 8.63139C6.34777 8.69549 6.31684 8.75528 6.2751 8.80725C6.23335 8.85922 6.18164 8.90231 6.123 8.93401L5.2555 9.43001C5.17829 9.47622 5.08999 9.50063 5 9.50063C4.91002 9.50063 4.82172 9.47622 4.7445 9.43001L3.877 8.93401C3.76193 8.86821 3.67769 8.7594 3.64281 8.63151C3.60793 8.50362 3.62527 8.36712 3.691 8.25201Z" fill="url(#paint0_linear_824_401)"/>
<defs>
<linearGradient id="paint0_linear_824_401" x1="5" y1="0.500168" x2="5" y2="9.50063" gradientUnits="userSpaceOnUse">
<stop stop-color="#EEBB19"/>
<stop offset="1" stop-color="#DC4545"/>
</linearGradient>
</defs>
</svg>
